<svg version="1.0" xmlns="http://www.w3.org/2000/svg" width="266.7" height="266.7" viewBox="0 0 200 200"><path d="M70.8 1c-5 1.3-14.5 6.3-18.4 9.7A45.2 45.2 0 0040 29.6c-1.8 5.8-2 9.3-2 29.8 0 12.7.5 26.2 1.1 30.1.9 6.7.8 7.3-2 13.5a68 68 0 001.6 59 55.5 55.5 0 0012.7 17.6 67.7 67.7 0 0079.5 12.7 51.5 51.5 0 0017.7-12.7c6.8-6.8 9-9.9 12.7-17.7a67.8 67.8 0 001.6-58.9c-2.8-6.2-2.9-6.8-2-13.5.6-3.9 1.1-17.4 1.1-30.1 0-20.5-.2-24-2-29.7a43.1 43.1 0 00-24.2-26.3L129.5.5 102 .3C86.9.2 72.8.5 70.8 1zm57.9 22.4a21.2 21.2 0 0111.9 15.1c.8 5.5-1.2 17.8-3.7 22.7a16.6 16.6 0 01-4.5 5.4c-2.4 1.6-2.9 1.6-8.7-.4a71.6 71.6 0 00-48.4.3c-4.9 2.1-7.6 1.3-10.9-3a50.5 50.5 0 01-5-25.6c1-5.7 6-11.7 11.9-14.5 5-2.3 5.9-2.4 28.7-2.4 22.8 0 23.7.1 28.7 2.4z"/></svg>